<svg width="312" height="395" viewBox="0 0 312 395" fill="none" xmlns="http://www.w3.org/2000/svg">
<g filter="url(#filter0_dd_14_369)">
<mask id="mask0_14_369" style="mask-type:alpha" maskUnits="userSpaceOnUse" x="20" y="16" width="272" height="360">
<g clip-path="url(#clip0_14_369)">
<path d="M50 16H292V346L262 376H20V46" fill="black"/>
</g>
</mask>
<g mask="url(#mask0_14_369)">
<path d="M20 16H272.08C283.126 16 292.08 24.9543 292.08 36V370.31H40C28.9543 370.31 20 361.356 20 350.31V16Z" fill="#171717"/>
<rect x="94.54" y="36" width="123" height="107" rx="15" fill="white"/>
<path d="M127.673 175.508V167.625H130.009V175.508C130.009 176.268 129.842 176.922 129.509 177.469C129.175 178.01 128.72 178.427 128.142 178.719C127.569 179.01 126.923 179.156 126.204 179.156C125.459 179.156 124.8 179.031 124.228 178.781C123.655 178.531 123.204 178.148 122.876 177.633C122.548 177.112 122.384 176.453 122.384 175.656H124.735C124.735 176.073 124.793 176.404 124.907 176.648C125.027 176.893 125.196 177.068 125.415 177.172C125.634 177.276 125.897 177.328 126.204 177.328C126.501 177.328 126.759 177.258 126.978 177.117C127.196 176.977 127.366 176.771 127.485 176.5C127.61 176.229 127.673 175.898 127.673 175.508ZM131.509 174.859V174.695C131.509 174.076 131.597 173.505 131.774 172.984C131.951 172.458 132.209 172.003 132.548 171.617C132.886 171.232 133.303 170.932 133.798 170.719C134.293 170.5 134.86 170.391 135.501 170.391C136.142 170.391 136.712 170.5 137.212 170.719C137.712 170.932 138.131 171.232 138.47 171.617C138.813 172.003 139.074 172.458 139.251 172.984C139.428 173.505 139.517 174.076 139.517 174.695V174.859C139.517 175.474 139.428 176.044 139.251 176.57C139.074 177.091 138.813 177.547 138.47 177.938C138.131 178.323 137.714 178.622 137.22 178.836C136.725 179.049 136.157 179.156 135.517 179.156C134.876 179.156 134.306 179.049 133.806 178.836C133.311 178.622 132.892 178.323 132.548 177.938C132.209 177.547 131.951 177.091 131.774 176.57C131.597 176.044 131.509 175.474 131.509 174.859ZM133.759 174.695V174.859C133.759 175.214 133.79 175.544 133.853 175.852C133.915 176.159 134.014 176.43 134.149 176.664C134.29 176.893 134.472 177.073 134.696 177.203C134.92 177.333 135.194 177.398 135.517 177.398C135.829 177.398 136.097 177.333 136.321 177.203C136.545 177.073 136.725 176.893 136.86 176.664C136.996 176.43 137.095 176.159 137.157 175.852C137.225 175.544 137.259 175.214 137.259 174.859V174.695C137.259 174.352 137.225 174.029 137.157 173.727C137.095 173.419 136.993 173.148 136.853 172.914C136.717 172.674 136.537 172.487 136.313 172.352C136.089 172.216 135.819 172.148 135.501 172.148C135.183 172.148 134.912 172.216 134.688 172.352C134.47 172.487 134.29 172.674 134.149 172.914C134.014 173.148 133.915 173.419 133.853 173.727C133.79 174.029 133.759 174.352 133.759 174.695ZM143.095 167V179H140.845V167H143.095ZM142.774 174.477H142.157C142.162 173.888 142.241 173.346 142.392 172.852C142.543 172.352 142.759 171.919 143.04 171.555C143.321 171.185 143.657 170.898 144.048 170.695C144.444 170.492 144.881 170.391 145.36 170.391C145.777 170.391 146.155 170.451 146.493 170.57C146.837 170.685 147.131 170.872 147.376 171.133C147.626 171.388 147.819 171.724 147.954 172.141C148.089 172.557 148.157 173.062 148.157 173.656V179H145.892V173.641C145.892 173.266 145.837 172.971 145.728 172.758C145.623 172.539 145.47 172.385 145.267 172.297C145.069 172.203 144.824 172.156 144.532 172.156C144.209 172.156 143.933 172.216 143.704 172.336C143.48 172.456 143.3 172.622 143.165 172.836C143.03 173.044 142.931 173.289 142.868 173.57C142.806 173.852 142.774 174.154 142.774 174.477ZM152.071 172.352V179H149.821V170.547H151.931L152.071 172.352ZM151.743 174.477H151.134C151.134 173.852 151.214 173.289 151.376 172.789C151.537 172.284 151.764 171.854 152.056 171.5C152.347 171.141 152.694 170.867 153.095 170.68C153.501 170.487 153.954 170.391 154.454 170.391C154.85 170.391 155.212 170.448 155.54 170.562C155.868 170.677 156.149 170.859 156.384 171.109C156.623 171.359 156.806 171.69 156.931 172.102C157.061 172.513 157.126 173.016 157.126 173.609V179H154.86V173.602C154.86 173.227 154.808 172.935 154.704 172.727C154.6 172.518 154.446 172.372 154.243 172.289C154.045 172.201 153.8 172.156 153.509 172.156C153.207 172.156 152.944 172.216 152.72 172.336C152.501 172.456 152.319 172.622 152.173 172.836C152.032 173.044 151.925 173.289 151.853 173.57C151.78 173.852 151.743 174.154 151.743 174.477ZM166.454 179H163.978L163.993 177.172H166.454C167.069 177.172 167.587 177.034 168.009 176.758C168.431 176.477 168.748 176.068 168.962 175.531C169.181 174.995 169.29 174.346 169.29 173.586V173.031C169.29 172.448 169.228 171.935 169.103 171.492C168.983 171.049 168.803 170.677 168.563 170.375C168.324 170.073 168.03 169.846 167.681 169.695C167.332 169.539 166.931 169.461 166.478 169.461H163.931V167.625H166.478C167.238 167.625 167.933 167.755 168.563 168.016C169.199 168.271 169.748 168.638 170.212 169.117C170.675 169.596 171.032 170.169 171.282 170.836C171.537 171.497 171.665 172.234 171.665 173.047V173.586C171.665 174.393 171.537 175.13 171.282 175.797C171.032 176.464 170.675 177.036 170.212 177.516C169.754 177.99 169.204 178.357 168.563 178.617C167.928 178.872 167.225 179 166.454 179ZM165.306 167.625V179H162.962V167.625H165.306ZM172.868 174.859V174.695C172.868 174.076 172.957 173.505 173.134 172.984C173.311 172.458 173.569 172.003 173.907 171.617C174.246 171.232 174.662 170.932 175.157 170.719C175.652 170.5 176.22 170.391 176.86 170.391C177.501 170.391 178.071 170.5 178.571 170.719C179.071 170.932 179.491 171.232 179.829 171.617C180.173 172.003 180.433 172.458 180.61 172.984C180.787 173.505 180.876 174.076 180.876 174.695V174.859C180.876 175.474 180.787 176.044 180.61 176.57C180.433 177.091 180.173 177.547 179.829 177.938C179.491 178.323 179.074 178.622 178.579 178.836C178.084 179.049 177.517 179.156 176.876 179.156C176.235 179.156 175.665 179.049 175.165 178.836C174.67 178.622 174.251 178.323 173.907 177.938C173.569 177.547 173.311 177.091 173.134 176.57C172.957 176.044 172.868 175.474 172.868 174.859ZM175.118 174.695V174.859C175.118 175.214 175.149 175.544 175.212 175.852C175.274 176.159 175.373 176.43 175.509 176.664C175.649 176.893 175.832 177.073 176.056 177.203C176.28 177.333 176.553 177.398 176.876 177.398C177.188 177.398 177.457 177.333 177.681 177.203C177.905 177.073 178.084 176.893 178.22 176.664C178.355 176.43 178.454 176.159 178.517 175.852C178.584 175.544 178.618 175.214 178.618 174.859V174.695C178.618 174.352 178.584 174.029 178.517 173.727C178.454 173.419 178.353 173.148 178.212 172.914C178.076 172.674 177.897 172.487 177.673 172.352C177.449 172.216 177.178 172.148 176.86 172.148C176.543 172.148 176.272 172.216 176.048 172.352C175.829 172.487 175.649 172.674 175.509 172.914C175.373 173.148 175.274 173.419 175.212 173.727C175.149 174.029 175.118 174.352 175.118 174.695ZM186.149 179.156C185.493 179.156 184.905 179.052 184.384 178.844C183.863 178.63 183.42 178.336 183.056 177.961C182.696 177.586 182.42 177.151 182.228 176.656C182.035 176.156 181.938 175.625 181.938 175.062V174.75C181.938 174.109 182.03 173.523 182.212 172.992C182.394 172.461 182.655 172 182.993 171.609C183.337 171.219 183.754 170.919 184.243 170.711C184.733 170.497 185.285 170.391 185.899 170.391C186.498 170.391 187.03 170.49 187.493 170.688C187.957 170.885 188.345 171.167 188.657 171.531C188.975 171.896 189.214 172.333 189.376 172.844C189.537 173.349 189.618 173.911 189.618 174.531V175.469H182.899V173.969H187.407V173.797C187.407 173.484 187.35 173.206 187.235 172.961C187.126 172.711 186.959 172.513 186.735 172.367C186.511 172.221 186.225 172.148 185.876 172.148C185.579 172.148 185.324 172.214 185.11 172.344C184.897 172.474 184.722 172.656 184.587 172.891C184.457 173.125 184.358 173.401 184.29 173.719C184.228 174.031 184.196 174.375 184.196 174.75V175.062C184.196 175.401 184.243 175.714 184.337 176C184.436 176.286 184.574 176.534 184.751 176.742C184.933 176.951 185.152 177.112 185.407 177.227C185.668 177.341 185.962 177.398 186.29 177.398C186.696 177.398 187.074 177.32 187.423 177.164C187.777 177.003 188.082 176.76 188.337 176.438L189.431 177.625C189.254 177.88 189.011 178.125 188.704 178.359C188.402 178.594 188.037 178.786 187.61 178.938C187.183 179.083 186.696 179.156 186.149 179.156Z" fill="white"/>
<path d="M93.8369 195.625H96.1729V203.141C96.1729 204.016 95.9854 204.753 95.6104 205.352C95.2406 205.951 94.7275 206.401 94.0713 206.703C93.4202 207.005 92.6702 207.156 91.8213 207.156C90.9723 207.156 90.2171 207.005 89.5557 206.703C88.8994 206.401 88.3838 205.951 88.0088 205.352C87.639 204.753 87.4541 204.016 87.4541 203.141V195.625H89.7979V203.141C89.7979 203.651 89.8786 204.068 90.04 204.391C90.2015 204.714 90.4333 204.951 90.7354 205.102C91.0426 205.253 91.4046 205.328 91.8213 205.328C92.2484 205.328 92.6104 205.253 92.9072 205.102C93.2093 204.951 93.4385 204.714 93.5947 204.391C93.7562 204.068 93.8369 203.651 93.8369 203.141V195.625ZM100.165 200.352V207H97.915V198.547H100.024L100.165 200.352ZM99.8369 202.477H99.2275C99.2275 201.852 99.3083 201.289 99.4697 200.789C99.6312 200.284 99.8577 199.854 100.149 199.5C100.441 199.141 100.787 198.867 101.188 198.68C101.595 198.487 102.048 198.391 102.548 198.391C102.944 198.391 103.306 198.448 103.634 198.562C103.962 198.677 104.243 198.859 104.478 199.109C104.717 199.359 104.899 199.69 105.024 200.102C105.155 200.513 105.22 201.016 105.22 201.609V207H102.954V201.602C102.954 201.227 102.902 200.935 102.798 200.727C102.694 200.518 102.54 200.372 102.337 200.289C102.139 200.201 101.894 200.156 101.603 200.156C101.3 200.156 101.037 200.216 100.813 200.336C100.595 200.456 100.412 200.622 100.267 200.836C100.126 201.044 100.019 201.289 99.9463 201.57C99.8734 201.852 99.8369 202.154 99.8369 202.477ZM109.306 198.547V207H107.048V198.547H109.306ZM106.907 196.344C106.907 196.016 107.022 195.745 107.251 195.531C107.48 195.318 107.787 195.211 108.173 195.211C108.553 195.211 108.858 195.318 109.087 195.531C109.321 195.745 109.438 196.016 109.438 196.344C109.438 196.672 109.321 196.943 109.087 197.156C108.858 197.37 108.553 197.477 108.173 197.477C107.787 197.477 107.48 197.37 107.251 197.156C107.022 196.943 106.907 196.672 106.907 196.344ZM114.04 205.359L115.915 198.547H118.267L115.415 207H113.993L114.04 205.359ZM112.751 198.547L114.634 205.367L114.673 207H113.243L110.392 198.547H112.751ZM123.056 207.156C122.399 207.156 121.811 207.052 121.29 206.844C120.769 206.63 120.326 206.336 119.962 205.961C119.603 205.586 119.326 205.151 119.134 204.656C118.941 204.156 118.845 203.625 118.845 203.062V202.75C118.845 202.109 118.936 201.523 119.118 200.992C119.3 200.461 119.561 200 119.899 199.609C120.243 199.219 120.66 198.919 121.149 198.711C121.639 198.497 122.191 198.391 122.806 198.391C123.405 198.391 123.936 198.49 124.399 198.688C124.863 198.885 125.251 199.167 125.563 199.531C125.881 199.896 126.121 200.333 126.282 200.844C126.444 201.349 126.524 201.911 126.524 202.531V203.469H119.806V201.969H124.313V201.797C124.313 201.484 124.256 201.206 124.142 200.961C124.032 200.711 123.866 200.513 123.642 200.367C123.418 200.221 123.131 200.148 122.782 200.148C122.485 200.148 122.23 200.214 122.017 200.344C121.803 200.474 121.629 200.656 121.493 200.891C121.363 201.125 121.264 201.401 121.196 201.719C121.134 202.031 121.103 202.375 121.103 202.75V203.062C121.103 203.401 121.149 203.714 121.243 204C121.342 204.286 121.48 204.534 121.657 204.742C121.84 204.951 122.058 205.112 122.313 205.227C122.574 205.341 122.868 205.398 123.196 205.398C123.603 205.398 123.98 205.32 124.329 205.164C124.683 205.003 124.988 204.76 125.243 204.438L126.337 205.625C126.16 205.88 125.918 206.125 125.61 206.359C125.308 206.594 124.944 206.786 124.517 206.938C124.09 207.083 123.603 207.156 123.056 207.156ZM130.056 200.391V207H127.806V198.547H129.923L130.056 200.391ZM132.603 198.492L132.563 200.578C132.454 200.562 132.321 200.549 132.165 200.539C132.014 200.523 131.876 200.516 131.751 200.516C131.433 200.516 131.157 200.557 130.923 200.641C130.694 200.719 130.501 200.836 130.345 200.992C130.194 201.148 130.079 201.339 130.001 201.562C129.928 201.786 129.886 202.042 129.876 202.328L129.423 202.188C129.423 201.641 129.478 201.138 129.587 200.68C129.696 200.216 129.855 199.812 130.063 199.469C130.277 199.125 130.537 198.859 130.845 198.672C131.152 198.484 131.504 198.391 131.899 198.391C132.024 198.391 132.152 198.401 132.282 198.422C132.412 198.438 132.519 198.461 132.603 198.492ZM136.04 198.547V207H133.782V198.547H136.04ZM133.642 196.344C133.642 196.016 133.756 195.745 133.985 195.531C134.215 195.318 134.522 195.211 134.907 195.211C135.287 195.211 135.592 195.318 135.821 195.531C136.056 195.745 136.173 196.016 136.173 196.344C136.173 196.672 136.056 196.943 135.821 197.156C135.592 197.37 135.287 197.477 134.907 197.477C134.522 197.477 134.215 197.37 133.985 197.156C133.756 196.943 133.642 196.672 133.642 196.344ZM142.47 204.664C142.47 204.503 142.423 204.357 142.329 204.227C142.235 204.096 142.061 203.977 141.806 203.867C141.556 203.753 141.194 203.648 140.72 203.555C140.293 203.461 139.894 203.344 139.524 203.203C139.16 203.057 138.842 202.883 138.571 202.68C138.306 202.477 138.097 202.237 137.946 201.961C137.795 201.68 137.72 201.359 137.72 201C137.72 200.646 137.795 200.312 137.946 200C138.103 199.688 138.324 199.411 138.61 199.172C138.902 198.927 139.256 198.737 139.673 198.602C140.095 198.461 140.569 198.391 141.095 198.391C141.829 198.391 142.459 198.508 142.985 198.742C143.517 198.977 143.923 199.299 144.204 199.711C144.491 200.117 144.634 200.581 144.634 201.102H142.384C142.384 200.883 142.337 200.688 142.243 200.516C142.155 200.339 142.014 200.201 141.821 200.102C141.634 199.997 141.389 199.945 141.087 199.945C140.837 199.945 140.621 199.99 140.438 200.078C140.256 200.161 140.116 200.276 140.017 200.422C139.923 200.562 139.876 200.719 139.876 200.891C139.876 201.021 139.902 201.138 139.954 201.242C140.011 201.341 140.103 201.432 140.228 201.516C140.353 201.599 140.514 201.677 140.712 201.75C140.915 201.818 141.165 201.88 141.462 201.938C142.071 202.062 142.616 202.227 143.095 202.43C143.574 202.628 143.954 202.898 144.235 203.242C144.517 203.581 144.657 204.026 144.657 204.578C144.657 204.953 144.574 205.297 144.407 205.609C144.241 205.922 144.001 206.195 143.688 206.43C143.376 206.659 143.001 206.839 142.563 206.969C142.131 207.094 141.644 207.156 141.103 207.156C140.316 207.156 139.649 207.016 139.103 206.734C138.561 206.453 138.149 206.096 137.868 205.664C137.592 205.227 137.454 204.779 137.454 204.32H139.587C139.597 204.628 139.675 204.875 139.821 205.062C139.972 205.25 140.162 205.385 140.392 205.469C140.626 205.552 140.879 205.594 141.149 205.594C141.441 205.594 141.683 205.555 141.876 205.477C142.069 205.393 142.215 205.284 142.313 205.148C142.418 205.008 142.47 204.846 142.47 204.664ZM150.259 198.547V200.141H145.337V198.547H150.259ZM146.556 196.461H148.806V204.453C148.806 204.698 148.837 204.885 148.899 205.016C148.967 205.146 149.066 205.237 149.196 205.289C149.326 205.336 149.491 205.359 149.688 205.359C149.829 205.359 149.954 205.354 150.063 205.344C150.178 205.328 150.274 205.312 150.353 205.297L150.36 206.953C150.168 207.016 149.959 207.065 149.735 207.102C149.511 207.138 149.264 207.156 148.993 207.156C148.498 207.156 148.066 207.076 147.696 206.914C147.332 206.747 147.05 206.482 146.853 206.117C146.655 205.753 146.556 205.273 146.556 204.68V196.461ZM154.048 206.047L156.29 198.547H158.704L155.306 208.273C155.233 208.487 155.134 208.716 155.009 208.961C154.889 209.206 154.725 209.438 154.517 209.656C154.313 209.88 154.056 210.062 153.743 210.203C153.436 210.344 153.058 210.414 152.61 210.414C152.397 210.414 152.222 210.401 152.087 210.375C151.951 210.349 151.79 210.312 151.603 210.266V208.617C151.66 208.617 151.72 208.617 151.782 208.617C151.845 208.622 151.905 208.625 151.962 208.625C152.259 208.625 152.501 208.591 152.688 208.523C152.876 208.456 153.027 208.352 153.142 208.211C153.256 208.076 153.347 207.898 153.415 207.68L154.048 206.047ZM153.11 198.547L154.946 204.672L155.267 207.055L153.735 207.219L150.696 198.547H153.11ZM163.228 202.859V202.695C163.228 202.076 163.316 201.505 163.493 200.984C163.67 200.458 163.928 200.003 164.267 199.617C164.605 199.232 165.022 198.932 165.517 198.719C166.011 198.5 166.579 198.391 167.22 198.391C167.86 198.391 168.431 198.5 168.931 198.719C169.431 198.932 169.85 199.232 170.188 199.617C170.532 200.003 170.793 200.458 170.97 200.984C171.147 201.505 171.235 202.076 171.235 202.695V202.859C171.235 203.474 171.147 204.044 170.97 204.57C170.793 205.091 170.532 205.547 170.188 205.938C169.85 206.323 169.433 206.622 168.938 206.836C168.444 207.049 167.876 207.156 167.235 207.156C166.595 207.156 166.024 207.049 165.524 206.836C165.03 206.622 164.61 206.323 164.267 205.938C163.928 205.547 163.67 205.091 163.493 204.57C163.316 204.044 163.228 203.474 163.228 202.859ZM165.478 202.695V202.859C165.478 203.214 165.509 203.544 165.571 203.852C165.634 204.159 165.733 204.43 165.868 204.664C166.009 204.893 166.191 205.073 166.415 205.203C166.639 205.333 166.912 205.398 167.235 205.398C167.548 205.398 167.816 205.333 168.04 205.203C168.264 205.073 168.444 204.893 168.579 204.664C168.715 204.43 168.813 204.159 168.876 203.852C168.944 203.544 168.978 203.214 168.978 202.859V202.695C168.978 202.352 168.944 202.029 168.876 201.727C168.813 201.419 168.712 201.148 168.571 200.914C168.436 200.674 168.256 200.487 168.032 200.352C167.808 200.216 167.537 200.148 167.22 200.148C166.902 200.148 166.631 200.216 166.407 200.352C166.188 200.487 166.009 200.674 165.868 200.914C165.733 201.148 165.634 201.419 165.571 201.727C165.509 202.029 165.478 202.352 165.478 202.695ZM175.485 207H173.22V197.797C173.22 197.156 173.345 196.617 173.595 196.18C173.85 195.737 174.207 195.404 174.665 195.18C175.129 194.951 175.678 194.836 176.313 194.836C176.522 194.836 176.722 194.852 176.915 194.883C177.108 194.909 177.295 194.943 177.478 194.984L177.454 196.68C177.355 196.654 177.251 196.635 177.142 196.625C177.032 196.615 176.905 196.609 176.759 196.609C176.488 196.609 176.256 196.656 176.063 196.75C175.876 196.839 175.733 196.971 175.634 197.148C175.535 197.326 175.485 197.542 175.485 197.797V207ZM177.173 198.547V200.141H171.962V198.547H177.173ZM186.931 202.008H184.009L183.993 200.398H186.446C186.879 200.398 187.233 200.344 187.509 200.234C187.785 200.12 187.991 199.956 188.126 199.742C188.267 199.523 188.337 199.258 188.337 198.945C188.337 198.591 188.269 198.305 188.134 198.086C188.004 197.867 187.798 197.708 187.517 197.609C187.241 197.51 186.884 197.461 186.446 197.461H184.821V207H182.478V195.625H186.446C187.108 195.625 187.699 195.688 188.22 195.812C188.746 195.938 189.191 196.128 189.556 196.383C189.92 196.638 190.199 196.961 190.392 197.352C190.584 197.737 190.681 198.195 190.681 198.727C190.681 199.195 190.574 199.628 190.36 200.023C190.152 200.419 189.821 200.742 189.368 200.992C188.92 201.242 188.334 201.38 187.61 201.406L186.931 202.008ZM186.829 207H183.368L184.282 205.172H186.829C187.241 205.172 187.576 205.107 187.837 204.977C188.097 204.841 188.29 204.659 188.415 204.43C188.54 204.201 188.603 203.938 188.603 203.641C188.603 203.307 188.545 203.018 188.431 202.773C188.321 202.529 188.144 202.341 187.899 202.211C187.655 202.076 187.332 202.008 186.931 202.008H184.673L184.688 200.398H187.501L188.04 201.031C188.733 201.021 189.29 201.143 189.712 201.398C190.139 201.648 190.449 201.974 190.642 202.375C190.84 202.776 190.938 203.206 190.938 203.664C190.938 204.393 190.78 205.008 190.462 205.508C190.144 206.003 189.678 206.375 189.063 206.625C188.454 206.875 187.709 207 186.829 207ZM196.446 207.156C195.79 207.156 195.201 207.052 194.681 206.844C194.16 206.63 193.717 206.336 193.353 205.961C192.993 205.586 192.717 205.151 192.524 204.656C192.332 204.156 192.235 203.625 192.235 203.062V202.75C192.235 202.109 192.326 201.523 192.509 200.992C192.691 200.461 192.951 200 193.29 199.609C193.634 199.219 194.05 198.919 194.54 198.711C195.03 198.497 195.582 198.391 196.196 198.391C196.795 198.391 197.326 198.49 197.79 198.688C198.254 198.885 198.642 199.167 198.954 199.531C199.272 199.896 199.511 200.333 199.673 200.844C199.834 201.349 199.915 201.911 199.915 202.531V203.469H193.196V201.969H197.704V201.797C197.704 201.484 197.647 201.206 197.532 200.961C197.423 200.711 197.256 200.513 197.032 200.367C196.808 200.221 196.522 200.148 196.173 200.148C195.876 200.148 195.621 200.214 195.407 200.344C195.194 200.474 195.019 200.656 194.884 200.891C194.754 201.125 194.655 201.401 194.587 201.719C194.524 202.031 194.493 202.375 194.493 202.75V203.062C194.493 203.401 194.54 203.714 194.634 204C194.733 204.286 194.871 204.534 195.048 204.742C195.23 204.951 195.449 205.112 195.704 205.227C195.965 205.341 196.259 205.398 196.587 205.398C196.993 205.398 197.371 205.32 197.72 205.164C198.074 205.003 198.379 204.76 198.634 204.438L199.728 205.625C199.55 205.88 199.308 206.125 199.001 206.359C198.699 206.594 198.334 206.786 197.907 206.938C197.48 207.083 196.993 207.156 196.446 207.156ZM203.571 195V207H201.313V195H203.571ZM207.806 198.547V207H205.548V198.547H207.806ZM205.407 196.344C205.407 196.016 205.522 195.745 205.751 195.531C205.98 195.318 206.287 195.211 206.673 195.211C207.053 195.211 207.358 195.318 207.587 195.531C207.821 195.745 207.938 196.016 207.938 196.344C207.938 196.672 207.821 196.943 207.587 197.156C207.358 197.37 207.053 197.477 206.673 197.477C206.287 197.477 205.98 197.37 205.751 197.156C205.522 196.943 205.407 196.672 205.407 196.344ZM216.392 205.242V207H209.97V205.242H216.392ZM216.267 199.844L210.876 207H209.368V205.664L214.735 198.547H216.267V199.844ZM215.47 198.547V200.312H209.493V198.547H215.47ZM221.571 207.156C220.915 207.156 220.326 207.052 219.806 206.844C219.285 206.63 218.842 206.336 218.478 205.961C218.118 205.586 217.842 205.151 217.649 204.656C217.457 204.156 217.36 203.625 217.36 203.062V202.75C217.36 202.109 217.451 201.523 217.634 200.992C217.816 200.461 218.076 200 218.415 199.609C218.759 199.219 219.175 198.919 219.665 198.711C220.155 198.497 220.707 198.391 221.321 198.391C221.92 198.391 222.451 198.49 222.915 198.688C223.379 198.885 223.767 199.167 224.079 199.531C224.397 199.896 224.636 200.333 224.798 200.844C224.959 201.349 225.04 201.911 225.04 202.531V203.469H218.321V201.969H222.829V201.797C222.829 201.484 222.772 201.206 222.657 200.961C222.548 200.711 222.381 200.513 222.157 200.367C221.933 200.221 221.647 200.148 221.298 200.148C221.001 200.148 220.746 200.214 220.532 200.344C220.319 200.474 220.144 200.656 220.009 200.891C219.879 201.125 219.78 201.401 219.712 201.719C219.649 202.031 219.618 202.375 219.618 202.75V203.062C219.618 203.401 219.665 203.714 219.759 204C219.858 204.286 219.996 204.534 220.173 204.742C220.355 204.951 220.574 205.112 220.829 205.227C221.09 205.341 221.384 205.398 221.712 205.398C222.118 205.398 222.496 205.32 222.845 205.164C223.199 205.003 223.504 204.76 223.759 204.438L224.853 205.625C224.675 205.88 224.433 206.125 224.126 206.359C223.824 206.594 223.459 206.786 223.032 206.938C222.605 207.083 222.118 207.156 221.571 207.156Z" fill="white"/>
<path d="M102.157 231.508V223.625H104.493V231.508C104.493 232.268 104.326 232.922 103.993 233.469C103.66 234.01 103.204 234.427 102.626 234.719C102.053 235.01 101.407 235.156 100.688 235.156C99.9437 235.156 99.2848 235.031 98.7119 234.781C98.139 234.531 97.6885 234.148 97.3604 233.633C97.0322 233.112 96.8682 232.453 96.8682 231.656H99.2197C99.2197 232.073 99.277 232.404 99.3916 232.648C99.5114 232.893 99.6807 233.068 99.8994 233.172C100.118 233.276 100.381 233.328 100.688 233.328C100.985 233.328 101.243 233.258 101.462 233.117C101.681 232.977 101.85 232.771 101.97 232.5C102.095 232.229 102.157 231.898 102.157 231.508ZM111.353 232.977V226.547H113.603V235H111.485L111.353 232.977ZM111.603 231.242L112.267 231.227C112.267 231.789 112.201 232.312 112.071 232.797C111.941 233.276 111.746 233.693 111.485 234.047C111.225 234.396 110.897 234.669 110.501 234.867C110.105 235.06 109.639 235.156 109.103 235.156C108.691 235.156 108.311 235.099 107.962 234.984C107.618 234.865 107.321 234.68 107.071 234.43C106.826 234.174 106.634 233.849 106.493 233.453C106.358 233.052 106.29 232.57 106.29 232.008V226.547H108.54V232.023C108.54 232.273 108.569 232.484 108.626 232.656C108.688 232.828 108.774 232.969 108.884 233.078C108.993 233.188 109.121 233.266 109.267 233.312C109.418 233.359 109.584 233.383 109.767 233.383C110.23 233.383 110.595 233.289 110.86 233.102C111.131 232.914 111.321 232.659 111.431 232.336C111.545 232.008 111.603 231.643 111.603 231.242ZM117.524 228.352V235H115.274V226.547H117.384L117.524 228.352ZM117.196 230.477H116.587C116.587 229.852 116.668 229.289 116.829 228.789C116.991 228.284 117.217 227.854 117.509 227.5C117.8 227.141 118.147 226.867 118.548 226.68C118.954 226.487 119.407 226.391 119.907 226.391C120.303 226.391 120.665 226.448 120.993 226.562C121.321 226.677 121.603 226.859 121.837 227.109C122.076 227.359 122.259 227.69 122.384 228.102C122.514 228.513 122.579 229.016 122.579 229.609V235H120.313V229.602C120.313 229.227 120.261 228.935 120.157 228.727C120.053 228.518 119.899 228.372 119.696 228.289C119.498 228.201 119.254 228.156 118.962 228.156C118.66 228.156 118.397 228.216 118.173 228.336C117.954 228.456 117.772 228.622 117.626 228.836C117.485 229.044 117.379 229.289 117.306 229.57C117.233 229.852 117.196 230.154 117.196 230.477ZM123.931 230.859V230.695C123.931 230.076 124.019 229.505 124.196 228.984C124.373 228.458 124.631 228.003 124.97 227.617C125.308 227.232 125.725 226.932 126.22 226.719C126.715 226.5 127.282 226.391 127.923 226.391C128.563 226.391 129.134 226.5 129.634 226.719C130.134 226.932 130.553 227.232 130.892 227.617C131.235 228.003 131.496 228.458 131.673 228.984C131.85 229.505 131.938 230.076 131.938 230.695V230.859C131.938 231.474 131.85 232.044 131.673 232.57C131.496 233.091 131.235 233.547 130.892 233.938C130.553 234.323 130.136 234.622 129.642 234.836C129.147 235.049 128.579 235.156 127.938 235.156C127.298 235.156 126.728 235.049 126.228 234.836C125.733 234.622 125.313 234.323 124.97 233.938C124.631 233.547 124.373 233.091 124.196 232.57C124.019 232.044 123.931 231.474 123.931 230.859ZM126.181 230.695V230.859C126.181 231.214 126.212 231.544 126.274 231.852C126.337 232.159 126.436 232.43 126.571 232.664C126.712 232.893 126.894 233.073 127.118 233.203C127.342 233.333 127.616 233.398 127.938 233.398C128.251 233.398 128.519 233.333 128.743 233.203C128.967 233.073 129.147 232.893 129.282 232.664C129.418 232.43 129.517 232.159 129.579 231.852C129.647 231.544 129.681 231.214 129.681 230.859V230.695C129.681 230.352 129.647 230.029 129.579 229.727C129.517 229.419 129.415 229.148 129.274 228.914C129.139 228.674 128.959 228.487 128.735 228.352C128.511 228.216 128.241 228.148 127.923 228.148C127.605 228.148 127.334 228.216 127.11 228.352C126.892 228.487 126.712 228.674 126.571 228.914C126.436 229.148 126.337 229.419 126.274 229.727C126.212 230.029 126.181 230.352 126.181 230.695ZM135.571 228.391V235H133.321V226.547H135.438L135.571 228.391ZM138.118 226.492L138.079 228.578C137.97 228.562 137.837 228.549 137.681 228.539C137.53 228.523 137.392 228.516 137.267 228.516C136.949 228.516 136.673 228.557 136.438 228.641C136.209 228.719 136.017 228.836 135.86 228.992C135.709 229.148 135.595 229.339 135.517 229.562C135.444 229.786 135.402 230.042 135.392 230.328L134.938 230.188C134.938 229.641 134.993 229.138 135.103 228.68C135.212 228.216 135.371 227.812 135.579 227.469C135.793 227.125 136.053 226.859 136.36 226.672C136.668 226.484 137.019 226.391 137.415 226.391C137.54 226.391 137.668 226.401 137.798 226.422C137.928 226.438 138.035 226.461 138.118 226.492ZM146.798 235H144.321L144.337 233.172H146.798C147.412 233.172 147.931 233.034 148.353 232.758C148.774 232.477 149.092 232.068 149.306 231.531C149.524 230.995 149.634 230.346 149.634 229.586V229.031C149.634 228.448 149.571 227.935 149.446 227.492C149.326 227.049 149.147 226.677 148.907 226.375C148.668 226.073 148.373 225.846 148.024 225.695C147.675 225.539 147.274 225.461 146.821 225.461H144.274V223.625H146.821C147.582 223.625 148.277 223.755 148.907 224.016C149.543 224.271 150.092 224.638 150.556 225.117C151.019 225.596 151.376 226.169 151.626 226.836C151.881 227.497 152.009 228.234 152.009 229.047V229.586C152.009 230.393 151.881 231.13 151.626 231.797C151.376 232.464 151.019 233.036 150.556 233.516C150.097 233.99 149.548 234.357 148.907 234.617C148.272 234.872 147.569 235 146.798 235ZM145.649 223.625V235H143.306V223.625H145.649ZM157.462 235.156C156.806 235.156 156.217 235.052 155.696 234.844C155.175 234.63 154.733 234.336 154.368 233.961C154.009 233.586 153.733 233.151 153.54 232.656C153.347 232.156 153.251 231.625 153.251 231.062V230.75C153.251 230.109 153.342 229.523 153.524 228.992C153.707 228.461 153.967 228 154.306 227.609C154.649 227.219 155.066 226.919 155.556 226.711C156.045 226.497 156.597 226.391 157.212 226.391C157.811 226.391 158.342 226.49 158.806 226.688C159.269 226.885 159.657 227.167 159.97 227.531C160.287 227.896 160.527 228.333 160.688 228.844C160.85 229.349 160.931 229.911 160.931 230.531V231.469H154.212V229.969H158.72V229.797C158.72 229.484 158.662 229.206 158.548 228.961C158.438 228.711 158.272 228.513 158.048 228.367C157.824 228.221 157.537 228.148 157.188 228.148C156.892 228.148 156.636 228.214 156.423 228.344C156.209 228.474 156.035 228.656 155.899 228.891C155.769 229.125 155.67 229.401 155.603 229.719C155.54 230.031 155.509 230.375 155.509 230.75V231.062C155.509 231.401 155.556 231.714 155.649 232C155.748 232.286 155.886 232.534 156.063 232.742C156.246 232.951 156.465 233.112 156.72 233.227C156.98 233.341 157.274 233.398 157.603 233.398C158.009 233.398 158.386 233.32 158.735 233.164C159.09 233.003 159.394 232.76 159.649 232.438L160.743 233.625C160.566 233.88 160.324 234.125 160.017 234.359C159.715 234.594 159.35 234.786 158.923 234.938C158.496 235.083 158.009 235.156 157.462 235.156ZM164.978 233.359L166.853 226.547H169.204L166.353 235H164.931L164.978 233.359ZM163.688 226.547L165.571 233.367L165.61 235H164.181L161.329 226.547H163.688ZM173.993 235.156C173.337 235.156 172.748 235.052 172.228 234.844C171.707 234.63 171.264 234.336 170.899 233.961C170.54 233.586 170.264 233.151 170.071 232.656C169.879 232.156 169.782 231.625 169.782 231.062V230.75C169.782 230.109 169.873 229.523 170.056 228.992C170.238 228.461 170.498 228 170.837 227.609C171.181 227.219 171.597 226.919 172.087 226.711C172.576 226.497 173.129 226.391 173.743 226.391C174.342 226.391 174.873 226.49 175.337 226.688C175.8 226.885 176.188 227.167 176.501 227.531C176.819 227.896 177.058 228.333 177.22 228.844C177.381 229.349 177.462 229.911 177.462 230.531V231.469H170.743V229.969H175.251V229.797C175.251 229.484 175.194 229.206 175.079 228.961C174.97 228.711 174.803 228.513 174.579 228.367C174.355 228.221 174.069 228.148 173.72 228.148C173.423 228.148 173.168 228.214 172.954 228.344C172.741 228.474 172.566 228.656 172.431 228.891C172.3 229.125 172.201 229.401 172.134 229.719C172.071 230.031 172.04 230.375 172.04 230.75V231.062C172.04 231.401 172.087 231.714 172.181 232C172.28 232.286 172.418 232.534 172.595 232.742C172.777 232.951 172.996 233.112 173.251 233.227C173.511 233.341 173.806 233.398 174.134 233.398C174.54 233.398 174.918 233.32 175.267 233.164C175.621 233.003 175.925 232.76 176.181 232.438L177.274 233.625C177.097 233.88 176.855 234.125 176.548 234.359C176.246 234.594 175.881 234.786 175.454 234.938C175.027 235.083 174.54 235.156 173.993 235.156ZM181.118 223V235H178.86V223H181.118ZM182.618 230.859V230.695C182.618 230.076 182.707 229.505 182.884 228.984C183.061 228.458 183.319 228.003 183.657 227.617C183.996 227.232 184.412 226.932 184.907 226.719C185.402 226.5 185.97 226.391 186.61 226.391C187.251 226.391 187.821 226.5 188.321 226.719C188.821 226.932 189.241 227.232 189.579 227.617C189.923 228.003 190.183 228.458 190.36 228.984C190.537 229.505 190.626 230.076 190.626 230.695V230.859C190.626 231.474 190.537 232.044 190.36 232.57C190.183 233.091 189.923 233.547 189.579 233.938C189.241 234.323 188.824 234.622 188.329 234.836C187.834 235.049 187.267 235.156 186.626 235.156C185.985 235.156 185.415 235.049 184.915 234.836C184.42 234.622 184.001 234.323 183.657 233.938C183.319 233.547 183.061 233.091 182.884 232.57C182.707 232.044 182.618 231.474 182.618 230.859ZM184.868 230.695V230.859C184.868 231.214 184.899 231.544 184.962 231.852C185.024 232.159 185.123 232.43 185.259 232.664C185.399 232.893 185.582 233.073 185.806 233.203C186.03 233.333 186.303 233.398 186.626 233.398C186.938 233.398 187.207 233.333 187.431 233.203C187.655 233.073 187.834 232.893 187.97 232.664C188.105 232.43 188.204 232.159 188.267 231.852C188.334 231.544 188.368 231.214 188.368 230.859V230.695C188.368 230.352 188.334 230.029 188.267 229.727C188.204 229.419 188.103 229.148 187.962 228.914C187.826 228.674 187.647 228.487 187.423 228.352C187.199 228.216 186.928 228.148 186.61 228.148C186.293 228.148 186.022 228.216 185.798 228.352C185.579 228.487 185.399 228.674 185.259 228.914C185.123 229.148 185.024 229.419 184.962 229.727C184.899 230.029 184.868 230.352 184.868 230.695ZM194.259 228.172V238.25H192.009V226.547H194.095L194.259 228.172ZM199.61 230.68V230.844C199.61 231.458 199.537 232.029 199.392 232.555C199.251 233.081 199.043 233.539 198.767 233.93C198.491 234.315 198.147 234.617 197.735 234.836C197.329 235.049 196.86 235.156 196.329 235.156C195.813 235.156 195.366 235.052 194.985 234.844C194.605 234.635 194.285 234.344 194.024 233.969C193.769 233.589 193.563 233.148 193.407 232.648C193.251 232.148 193.131 231.612 193.048 231.039V230.609C193.131 229.995 193.251 229.432 193.407 228.922C193.563 228.406 193.769 227.961 194.024 227.586C194.285 227.206 194.603 226.911 194.978 226.703C195.358 226.495 195.803 226.391 196.313 226.391C196.85 226.391 197.321 226.492 197.728 226.695C198.139 226.898 198.483 227.19 198.759 227.57C199.04 227.951 199.251 228.404 199.392 228.93C199.537 229.456 199.61 230.039 199.61 230.68ZM197.353 230.844V230.68C197.353 230.32 197.321 229.99 197.259 229.688C197.201 229.38 197.108 229.112 196.978 228.883C196.853 228.654 196.686 228.477 196.478 228.352C196.274 228.221 196.027 228.156 195.735 228.156C195.428 228.156 195.165 228.206 194.946 228.305C194.733 228.404 194.558 228.547 194.423 228.734C194.287 228.922 194.186 229.146 194.118 229.406C194.05 229.667 194.009 229.961 193.993 230.289V231.375C194.019 231.76 194.092 232.107 194.212 232.414C194.332 232.716 194.517 232.956 194.767 233.133C195.017 233.31 195.345 233.398 195.751 233.398C196.048 233.398 196.298 233.333 196.501 233.203C196.704 233.068 196.868 232.883 196.993 232.648C197.123 232.414 197.215 232.143 197.267 231.836C197.324 231.529 197.353 231.198 197.353 230.844ZM204.899 235.156C204.243 235.156 203.655 235.052 203.134 234.844C202.613 234.63 202.17 234.336 201.806 233.961C201.446 233.586 201.17 233.151 200.978 232.656C200.785 232.156 200.688 231.625 200.688 231.062V230.75C200.688 230.109 200.78 229.523 200.962 228.992C201.144 228.461 201.405 228 201.743 227.609C202.087 227.219 202.504 226.919 202.993 226.711C203.483 226.497 204.035 226.391 204.649 226.391C205.248 226.391 205.78 226.49 206.243 226.688C206.707 226.885 207.095 227.167 207.407 227.531C207.725 227.896 207.965 228.333 208.126 228.844C208.287 229.349 208.368 229.911 208.368 230.531V231.469H201.649V229.969H206.157V229.797C206.157 229.484 206.1 229.206 205.985 228.961C205.876 228.711 205.709 228.513 205.485 228.367C205.261 228.221 204.975 228.148 204.626 228.148C204.329 228.148 204.074 228.214 203.86 228.344C203.647 228.474 203.472 228.656 203.337 228.891C203.207 229.125 203.108 229.401 203.04 229.719C202.978 230.031 202.946 230.375 202.946 230.75V231.062C202.946 231.401 202.993 231.714 203.087 232C203.186 232.286 203.324 232.534 203.501 232.742C203.683 232.951 203.902 233.112 204.157 233.227C204.418 233.341 204.712 233.398 205.04 233.398C205.446 233.398 205.824 233.32 206.173 233.164C206.527 233.003 206.832 232.76 207.087 232.438L208.181 233.625C208.004 233.88 207.761 234.125 207.454 234.359C207.152 234.594 206.787 234.786 206.36 234.938C205.933 235.083 205.446 235.156 204.899 235.156ZM211.899 228.391V235H209.649V226.547H211.767L211.899 228.391ZM214.446 226.492L214.407 228.578C214.298 228.562 214.165 228.549 214.009 228.539C213.858 228.523 213.72 228.516 213.595 228.516C213.277 228.516 213.001 228.557 212.767 228.641C212.537 228.719 212.345 228.836 212.188 228.992C212.037 229.148 211.923 229.339 211.845 229.562C211.772 229.786 211.73 230.042 211.72 230.328L211.267 230.188C211.267 229.641 211.321 229.138 211.431 228.68C211.54 228.216 211.699 227.812 211.907 227.469C212.121 227.125 212.381 226.859 212.688 226.672C212.996 226.484 213.347 226.391 213.743 226.391C213.868 226.391 213.996 226.401 214.126 226.422C214.256 226.438 214.363 226.461 214.446 226.492Z" fill="white"/>
<g clip-path="url(#clip1_14_369)">
<path d="M108.04 270C103.62 270 100.04 273.58 100.04 278C100.04 281.54 102.33 284.53 105.51 285.59C105.91 285.66 106.06 285.42 106.06 285.21C106.06 285.02 106.05 284.39 106.05 283.72C104.04 284.09 103.52 283.23 103.36 282.78C103.27 282.55 102.88 281.84 102.54 281.65C102.26 281.5 101.86 281.13 102.53 281.12C103.16 281.11 103.61 281.7 103.76 281.94C104.48 283.15 105.63 282.81 106.09 282.6C106.16 282.08 106.37 281.73 106.6 281.53C104.82 281.33 102.96 280.64 102.96 277.58C102.96 276.71 103.27 275.99 103.78 275.43C103.7 275.23 103.42 274.41 103.86 273.31C103.86 273.31 104.53 273.1 106.06 274.13C106.7 273.95 107.38 273.86 108.06 273.86C108.74 273.86 109.42 273.95 110.06 274.13C111.59 273.09 112.26 273.31 112.26 273.31C112.7 274.41 112.42 275.23 112.34 275.43C112.85 275.99 113.16 276.7 113.16 277.58C113.16 280.65 111.29 281.33 109.51 281.53C109.8 281.78 110.05 282.26 110.05 283.01C110.05 284.08 110.04 284.94 110.04 285.21C110.04 285.42 110.19 285.67 110.59 285.59C113.847 284.491 116.039 281.437 116.04 278C116.04 273.58 112.46 270 108.04 270Z" fill="white"/>
</g>
<g clip-path="url(#clip2_14_369)">
<path d="M137.066 285C143.104 285 146.407 279.997 146.407 275.666C146.407 275.526 146.407 275.384 146.401 275.244C147.044 274.778 147.599 274.202 148.04 273.542C147.439 273.807 146.803 273.981 146.151 274.06C146.838 273.65 147.352 273.004 147.598 272.243C146.953 272.625 146.247 272.893 145.511 273.036C144.494 271.953 142.876 271.687 141.565 272.388C140.255 273.089 139.578 274.582 139.915 276.03C137.275 275.898 134.816 274.651 133.148 272.601C132.279 274.102 132.725 276.019 134.166 276.983C133.646 276.965 133.137 276.826 132.68 276.575V276.62C132.682 278.182 133.782 279.526 135.312 279.838C135.03 279.916 134.739 279.954 134.447 279.953C134.241 279.954 134.035 279.935 133.833 279.896C134.263 281.233 135.496 282.148 136.9 282.173C135.737 283.087 134.299 283.582 132.82 283.58C132.559 283.581 132.299 283.566 132.04 283.535C133.542 284.492 135.285 285.001 137.066 285Z" fill="white"/>
</g>
<g clip-path="url(#clip3_14_369)">
<path d="M172.04 270C169.869 270 169.596 270.01 168.743 270.048C167.89 270.088 167.309 270.222 166.8 270.42C166.266 270.621 165.783 270.936 165.383 271.343C164.976 271.743 164.661 272.226 164.46 272.76C164.262 273.268 164.127 273.85 164.088 274.7C164.05 275.555 164.04 275.827 164.04 278.001C164.04 280.173 164.05 280.445 164.088 281.298C164.128 282.15 164.262 282.731 164.46 283.24C164.665 283.766 164.938 284.212 165.383 284.657C165.827 285.102 166.273 285.376 166.799 285.58C167.309 285.778 167.889 285.913 168.741 285.952C169.595 285.99 169.867 286 172.04 286C174.213 286 174.484 285.99 175.338 285.952C176.189 285.912 176.772 285.778 177.281 285.58C177.815 285.379 178.298 285.064 178.697 284.657C179.142 284.212 179.415 283.766 179.62 283.24C179.817 282.731 179.952 282.15 179.992 281.298C180.03 280.445 180.04 280.173 180.04 278C180.04 275.827 180.03 275.555 179.992 274.701C179.952 273.85 179.817 273.268 179.62 272.76C179.419 272.226 179.104 271.743 178.697 271.343C178.298 270.936 177.814 270.621 177.28 270.42C176.77 270.222 176.188 270.087 175.337 270.048C174.483 270.01 174.212 270 172.038 270H172.041M171.323 271.442H172.041C174.177 271.442 174.43 271.449 175.273 271.488C176.053 271.523 176.477 271.654 176.759 271.763C177.132 271.908 177.399 272.082 177.679 272.362C177.959 272.642 178.132 272.908 178.277 273.282C178.387 273.563 178.517 273.987 178.552 274.767C178.591 275.61 178.599 275.863 178.599 277.998C178.599 280.133 178.591 280.387 178.552 281.23C178.517 282.01 178.386 282.433 178.277 282.715C178.149 283.062 177.944 283.376 177.678 283.634C177.398 283.914 177.132 284.087 176.758 284.232C176.478 284.342 176.054 284.472 175.273 284.508C174.43 284.546 174.177 284.555 172.041 284.555C169.905 284.555 169.651 284.546 168.808 284.508C168.028 284.472 167.605 284.342 167.323 284.232C166.976 284.104 166.661 283.9 166.403 283.634C166.137 283.376 165.932 283.062 165.803 282.714C165.694 282.433 165.563 282.009 165.528 281.229C165.49 280.386 165.482 280.133 165.482 277.996C165.482 275.86 165.49 275.608 165.528 274.765C165.564 273.985 165.694 273.561 165.804 273.279C165.949 272.906 166.123 272.639 166.403 272.359C166.683 272.079 166.949 271.906 167.323 271.761C167.605 271.651 168.028 271.521 168.808 271.485C169.546 271.451 169.832 271.441 171.323 271.44V271.442ZM176.311 272.77C175.781 272.77 175.351 273.2 175.351 273.73C175.351 274.26 175.781 274.69 176.311 274.69C176.841 274.69 177.271 274.26 177.271 273.73C177.271 273.2 176.841 272.77 176.311 272.77ZM172.041 273.892C170.558 273.869 169.177 274.647 168.429 275.928C167.681 277.208 167.681 278.793 168.429 280.073C169.177 281.354 170.558 282.132 172.041 282.109C174.285 282.074 176.086 280.245 176.086 278C176.086 275.756 174.285 273.927 172.041 273.892ZM172.041 275.333C173.513 275.333 174.708 276.528 174.708 278C174.708 279.472 173.513 280.667 172.041 280.667C170.569 280.667 169.374 279.472 169.374 278C169.374 276.528 170.569 275.333 172.041 275.333Z" fill="white"/>
</g>
<g clip-path="url(#clip4_14_369)">
<path d="M204.091 271.999H204.18C205.002 272.002 209.167 272.032 210.29 272.334C210.981 272.522 211.52 273.062 211.705 273.754C211.806 274.134 211.877 274.637 211.925 275.156L211.935 275.26L211.957 275.52L211.965 275.624C212.03 276.538 212.038 277.394 212.039 277.581V277.656C212.038 277.85 212.029 278.764 211.957 279.716L211.949 279.821L211.94 279.925C211.89 280.497 211.816 281.065 211.705 281.483C211.52 282.175 210.981 282.716 210.29 282.903C209.13 283.215 204.721 283.237 204.11 283.238H203.968C203.659 283.238 202.381 283.232 201.041 283.186L200.871 283.18L200.784 283.176L200.613 283.169L200.442 283.162C199.332 283.113 198.275 283.034 197.788 282.902C197.097 282.715 196.558 282.174 196.373 281.483C196.262 281.066 196.188 280.497 196.138 279.925L196.13 279.82L196.122 279.716C196.073 279.038 196.045 278.359 196.04 277.68V277.557C196.042 277.342 196.05 276.599 196.104 275.779L196.111 275.676L196.114 275.624L196.122 275.52L196.144 275.26L196.154 275.156C196.202 274.637 196.273 274.133 196.374 273.754C196.559 273.062 197.098 272.521 197.789 272.334C198.276 272.204 199.333 272.124 200.443 272.074L200.613 272.067L200.785 272.061L200.871 272.058L201.042 272.051C201.994 272.02 202.946 272.003 203.898 272H204.091M202.44 275.209V280.027L206.597 277.619L202.44 275.209Z" fill="white"/>
</g>
<rect x="109" y="308" width="94.08" height="36.31" rx="18.155" fill="white"/>
<path d="M136.059 327.189H134.507V330.65H132.559V321.195H136.072C137.189 321.195 138.051 321.443 138.657 321.941C139.263 322.439 139.566 323.143 139.566 324.052C139.566 324.697 139.427 325.235 139.147 325.666C138.868 326.097 138.445 326.44 137.878 326.695L139.923 330.559V330.65H137.832L136.059 327.189ZM134.507 325.611H136.079C136.568 325.611 136.947 325.486 137.215 325.237C137.484 324.988 137.618 324.645 137.618 324.208C137.618 323.762 137.491 323.411 137.238 323.156C136.985 322.9 136.596 322.773 136.072 322.773H134.507V325.611ZM144.158 330.78C143.127 330.78 142.288 330.464 141.641 329.832C140.994 329.2 140.67 328.358 140.67 327.306V327.124C140.67 326.418 140.807 325.787 141.079 325.231C141.352 324.674 141.738 324.246 142.238 323.945C142.739 323.644 143.309 323.493 143.95 323.493C144.911 323.493 145.667 323.797 146.219 324.403C146.771 325.009 147.047 325.868 147.047 326.981V327.747H142.573C142.634 328.206 142.816 328.574 143.122 328.851C143.427 329.128 143.813 329.267 144.281 329.267C145.004 329.267 145.569 329.005 145.976 328.481L146.898 329.514C146.617 329.912 146.236 330.222 145.755 330.445C145.275 330.668 144.742 330.78 144.158 330.78ZM143.943 325.013C143.571 325.013 143.269 325.139 143.037 325.39C142.806 325.641 142.657 326 142.592 326.468H145.203V326.318C145.194 325.903 145.082 325.581 144.865 325.354C144.649 325.127 144.342 325.013 143.943 325.013ZM151.918 328.708C151.918 328.479 151.804 328.298 151.577 328.166C151.35 328.034 150.985 327.916 150.483 327.812C148.812 327.461 147.976 326.751 147.976 325.682C147.976 325.059 148.235 324.538 148.752 324.12C149.269 323.702 149.946 323.493 150.782 323.493C151.673 323.493 152.387 323.703 152.921 324.123C153.456 324.543 153.723 325.089 153.723 325.76H151.847C151.847 325.491 151.76 325.27 151.587 325.094C151.414 324.919 151.143 324.831 150.775 324.831C150.459 324.831 150.214 324.903 150.041 325.046C149.868 325.188 149.781 325.37 149.781 325.591C149.781 325.799 149.88 325.967 150.077 326.094C150.274 326.222 150.606 326.332 151.074 326.426C151.541 326.519 151.935 326.624 152.256 326.741C153.247 327.104 153.743 327.734 153.743 328.63C153.743 329.271 153.468 329.79 152.918 330.186C152.368 330.582 151.658 330.78 150.788 330.78C150.199 330.78 149.676 330.675 149.22 330.465C148.763 330.255 148.405 329.967 148.145 329.601C147.885 329.235 147.755 328.84 147.755 328.416H149.535C149.552 328.749 149.675 329.005 149.905 329.182C150.134 329.36 150.442 329.449 150.827 329.449C151.186 329.449 151.458 329.38 151.642 329.244C151.826 329.108 151.918 328.929 151.918 328.708ZM159.159 329.936C158.696 330.498 158.055 330.78 157.237 330.78C156.483 330.78 155.909 330.563 155.513 330.13C155.116 329.698 154.914 329.063 154.905 328.228V323.623H156.782V328.163C156.782 328.894 157.115 329.26 157.782 329.26C158.419 329.26 158.856 329.039 159.094 328.598V323.623H160.977V330.65H159.211L159.159 329.936ZM164.153 323.623L164.211 324.409C164.709 323.799 165.383 323.493 166.231 323.493C167.136 323.493 167.757 323.851 168.095 324.565C168.588 323.851 169.292 323.493 170.206 323.493C170.967 323.493 171.535 323.715 171.907 324.159C172.279 324.603 172.465 325.271 172.465 326.163V330.65H170.582V326.169C170.582 325.771 170.504 325.48 170.348 325.296C170.193 325.112 169.918 325.02 169.524 325.02C168.961 325.02 168.571 325.288 168.355 325.825L168.361 330.65H166.484V326.176C166.484 325.769 166.404 325.474 166.244 325.292C166.084 325.11 165.811 325.02 165.426 325.02C164.893 325.02 164.508 325.24 164.27 325.682V330.65H162.393V323.623H164.153ZM177.141 330.78C176.111 330.78 175.272 330.464 174.625 329.832C173.978 329.2 173.654 328.358 173.654 327.306V327.124C173.654 326.418 173.79 325.787 174.063 325.231C174.336 324.674 174.722 324.246 175.222 323.945C175.722 323.644 176.293 323.493 176.933 323.493C177.895 323.493 178.651 323.797 179.203 324.403C179.755 325.009 180.031 325.868 180.031 326.981V327.747H175.557C175.617 328.206 175.8 328.574 176.105 328.851C176.411 329.128 176.797 329.267 177.265 329.267C177.988 329.267 178.553 329.005 178.96 328.481L179.882 329.514C179.6 329.912 179.219 330.222 178.739 330.445C178.258 330.668 177.726 330.78 177.141 330.78ZM176.927 325.013C176.555 325.013 176.253 325.139 176.021 325.39C175.789 325.641 175.641 326 175.576 326.468H178.187V326.318C178.178 325.903 178.066 325.581 177.849 325.354C177.633 325.127 177.325 325.013 176.927 325.013Z" fill="black"/>
</g>
</g>
<defs>
<filter id="filter0_dd_14_369" x="0" y="0" width="312" height="400" filterUnits="userSpaceOnUse" color-interpolation-filters="sRGB">
<feFlood flood-opacity="0" result="BackgroundImageFix"/>
<feColorMatrix in="SourceAlpha" type="matrix" values="0 0 0 0 0 0 0 0 0 0 0 0 0 0 0 0 0 0 127 0" result="hardAlpha"/>
<feOffset dy="4"/>
<feGaussianBlur stdDeviation="10"/>
<feComposite in2="hardAlpha" operator="out"/>
<feColorMatrix type="matrix" values="0 0 0 0 0.482353 0 0 0 0 0.172549 0 0 0 0 0.74902 0 0 0 1 0"/>
<feBlend mode="normal" in2="BackgroundImageFix" result="effect1_dropShadow_14_369"/>
<feColorMatrix in="SourceAlpha" type="matrix" values="0 0 0 0 0 0 0 0 0 0 0 0 0 0 0 0 0 0 127 0" result="hardAlpha"/>
<feOffset dx="4" dy="4"/>
<feComposite in2="hardAlpha" operator="out"/>
<feColorMatrix type="matrix" values="0 0 0 0 1 0 0 0 0 0.568627 0 0 0 0 0 0 0 0 1 0"/>
<feBlend mode="normal" in2="effect1_dropShadow_14_369" result="effect2_dropShadow_14_369"/>
<feBlend mode="normal" in="SourceGraphic" in2="effect2_dropShadow_14_369" result="shape"/>
</filter>
<clipPath id="clip0_14_369">
<rect width="272" height="360" fill="white" transform="translate(20 16)"/>
</clipPath>
<clipPath id="clip1_14_369">
<rect width="16" height="16" fill="white" transform="translate(100.04 270)"/>
</clipPath>
<clipPath id="clip2_14_369">
<rect width="16" height="16" fill="white" transform="translate(132.04 270)"/>
</clipPath>
<clipPath id="clip3_14_369">
<rect width="16" height="16" fill="white" transform="translate(164.04 270)"/>
</clipPath>
<clipPath id="clip4_14_369">
<rect width="16" height="16" fill="white" transform="translate(196.04 270)"/>
</clipPath>
</defs>
</svg>
