<svg xmlns="http://www.w3.org/2000/svg" xmlns:xlink="http://www.w3.org/1999/xlink" viewBox="0 0 903.6 250.39"><defs><style>.cls-1{fill:#f15a60;}.cls-2{fill:#ed483d;}.cls-3{fill:#f15a24;}.cls-4,.cls-7,.cls-8,.cls-9{fill:none;stroke-miterlimit:10;}.cls-4{stroke-width:3.6px;stroke:url(#linear-gradient);}.cls-5{fill:url(#linear-gradient-2);}.cls-6{fill:url(#New_Gradient_Swatch);}.cls-7{stroke:#f15a24;}.cls-7,.cls-8,.cls-9{stroke-width:14.4px;}.cls-8{stroke:#f15a60;}.cls-9{stroke:url(#linear-gradient-3);}</style><linearGradient id="linear-gradient" x1="-1860.95" y1="-623.75" x2="-1628.62" y2="-623.75" gradientTransform="translate(-1594.5 817.3) rotate(138.09)" gradientUnits="userSpaceOnUse"><stop offset="0" stop-color="#f15a60"/><stop offset="0.12" stop-color="#f15a5f" stop-opacity="0.98"/><stop offset="0.25" stop-color="#f1595e" stop-opacity="0.93"/><stop offset="0.38" stop-color="#f0575b" stop-opacity="0.84"/><stop offset="0.52" stop-color="#f05556" stop-opacity="0.72"/><stop offset="0.65" stop-color="#ef5251" stop-opacity="0.57"/><stop offset="0.78" stop-color="#ef4f4a" stop-opacity="0.38"/><stop offset="0.92" stop-color="#ee4b42" stop-opacity="0.16"/><stop offset="1" stop-color="#ed483d" stop-opacity="0"/></linearGradient><linearGradient id="linear-gradient-2" x1="35.86" y1="125.09" x2="81.91" y2="81.91" gradientTransform="translate(93.75 -2.53) rotate(45)" gradientUnits="userSpaceOnUse"><stop offset="0" stop-color="#ed483d"/><stop offset="0.17" stop-color="#f05252"/><stop offset="0.73" stop-color="#fb6f93"/><stop offset="1" stop-color="#ff7bac"/></linearGradient><linearGradient id="New_Gradient_Swatch" x1="-1817.58" y1="125.09" x2="-1771.53" y2="81.91" gradientTransform="matrix(-0.71, -0.71, -0.71, 0.71, -1003.66, -1242.5)" xlink:href="#linear-gradient-2"/><linearGradient id="linear-gradient-3" x1="-211.29" y1="755.81" x2="31.81" y2="755.81" gradientTransform="matrix(0.81, -0.58, 0.58, 0.81, -244.02, -538.8)" gradientUnits="userSpaceOnUse"><stop offset="0" stop-color="#f15a24"/><stop offset="0.12" stop-color="#f15b26" stop-opacity="0.98"/><stop offset="0.25" stop-color="#f25c2d" stop-opacity="0.93"/><stop offset="0.38" stop-color="#f35f39" stop-opacity="0.84"/><stop offset="0.52" stop-color="#f5634a" stop-opacity="0.72"/><stop offset="0.65" stop-color="#f7685f" stop-opacity="0.57"/><stop offset="0.78" stop-color="#fa6f79" stop-opacity="0.38"/><stop offset="0.92" stop-color="#fd7697" stop-opacity="0.16"/><stop offset="1" stop-color="#ff7bac" stop-opacity="0"/></linearGradient></defs><g id="Layer_2" data-name="Layer 2"><g id="Layer_1-2" data-name="Layer 1"><path class="cls-1" d="M537.14,89.23h35.05A49.21,49.21,0,0,1,594.4,94a35.85,35.85,0,0,1,15,13.5,38,38,0,0,1,5.34,20.28,38,38,0,0,1-5.34,20.27,35.94,35.94,0,0,1-15,13.51,49.34,49.34,0,0,1-22.21,4.79H537.14Zm34.17,62.49q11.57,0,18.46-6.45t6.89-17.46q0-11-6.89-17.47t-18.46-6.45H555v47.83Z"/><path class="cls-1" d="M627.85,96.06a9.32,9.32,0,0,1,0-13.66,10.87,10.87,0,0,1,7.71-2.76,11.17,11.17,0,0,1,7.72,2.65,8.48,8.48,0,0,1,3,6.61,9.36,9.36,0,0,1-3,7.11,12.08,12.08,0,0,1-15.43,0Zm-.88,11h17.19v59.29H627Z"/><path class="cls-1" d="M721.31,107.09v49.37q0,16.31-8.49,24.25T688,188.64a62.25,62.25,0,0,1-16.31-2.09,35.73,35.73,0,0,1-12.78-6.06l6.83-12.35a28.07,28.07,0,0,0,9.48,4.91,37.78,37.78,0,0,0,11.46,1.82q8.92,0,13.17-4t4.24-12.17v-2.54q-6.72,7.38-18.73,7.38a31.46,31.46,0,0,1-14.94-3.58,27.21,27.21,0,0,1-10.74-10.08,30.28,30.28,0,0,1,0-30,27.21,27.21,0,0,1,10.74-10.08,31.47,31.47,0,0,1,14.94-3.59q12.89,0,19.62,8.49v-7.6ZM700,145.39a14.92,14.92,0,0,0,0-21.06,15.84,15.84,0,0,0-11.19-4,16,16,0,0,0-11.24,4,14.78,14.78,0,0,0,0,21.06,16,16,0,0,0,11.24,4A15.84,15.84,0,0,0,700,145.39Z"/><path class="cls-1" d="M738.17,96.06a9.32,9.32,0,0,1,0-13.66,10.87,10.87,0,0,1,7.71-2.76,11.16,11.16,0,0,1,7.72,2.65,8.49,8.49,0,0,1,3,6.61,9.37,9.37,0,0,1-3,7.11,12.08,12.08,0,0,1-15.43,0Zm-.88,11h17.19v59.29H737.29Z"/><path class="cls-1" d="M808.71,163.51a17.51,17.51,0,0,1-6.23,2.81,31.21,31.21,0,0,1-7.77.94q-10.58,0-16.37-5.4T772.56,146V121.63h-9.15V108.41h9.15V94h17.19v14.44h14.77v13.22H789.75v24.14a8.08,8.08,0,0,0,1.93,5.79,7.13,7.13,0,0,0,5.45,2,11.07,11.07,0,0,0,7-2.21Z"/><path class="cls-1" d="M863.48,112.76q7.38,6.55,7.39,19.78v33.84h-16.1V159q-4.85,8.26-18.07,8.26A28.09,28.09,0,0,1,824.85,165a17.83,17.83,0,0,1-7.66-6.39,16.68,16.68,0,0,1-2.64-9.26,15.46,15.46,0,0,1,6.22-13q6.22-4.74,19.24-4.74h13.66q0-5.61-3.41-8.65t-10.25-3a30,30,0,0,0-9.32,1.49,24.58,24.58,0,0,0-7.77,4l-6.17-12a37.18,37.18,0,0,1,11.63-5.29,52,52,0,0,1,13.94-1.88Q856.11,106.2,863.48,112.76Zm-14.66,40.89a11.12,11.12,0,0,0,4.85-6v-6.06H841.88q-10.57,0-10.58,6.95a6.16,6.16,0,0,0,2.59,5.23,11.63,11.63,0,0,0,7.11,1.93A14.93,14.93,0,0,0,848.82,153.65Z"/><path class="cls-1" d="M886.41,84.6H903.6v81.78H886.41Z"/><path class="cls-2" d="M555,166.58H537l.24-62.6S555,109.9,555,122.48Z"/><path class="cls-3" d="M346.82,133.26a19.3,19.3,0,0,1,3.75,12.07q0,10.14-7.88,15.6t-23,5.45h-39.9V89.23H317.5q14.12,0,21.66,5.4a17.11,17.11,0,0,1,7.55,14.66,18.53,18.53,0,0,1-10.25,17A20.37,20.37,0,0,1,346.82,133.26Zm-49.27-30.58v18.18H315.3q6.61,0,10-2.31a7.73,7.73,0,0,0,3.41-6.83,7.58,7.58,0,0,0-3.41-6.78q-3.42-2.26-10-2.26ZM329,150.62q3.59-2.31,3.58-7.16,0-9.59-14.22-9.59H297.55v19.07h20.83Q325.44,152.94,329,150.62Z"/><path class="cls-3" d="M420.66,141.58H375.8a14,14,0,0,0,5.74,8.71,19,19,0,0,0,11.24,3.2,22.75,22.75,0,0,0,8.21-1.38,20,20,0,0,0,6.67-4.35l9.14,9.91q-8.37,9.6-24.46,9.59a38.72,38.72,0,0,1-17.75-3.91,28.69,28.69,0,0,1-11.9-10.86,29.9,29.9,0,0,1-4.19-15.76,30.35,30.35,0,0,1,4.13-15.7A28.94,28.94,0,0,1,374,110.12a35.09,35.09,0,0,1,31.9-.17A27.36,27.36,0,0,1,417,120.7,32,32,0,0,1,421,137C421,137.17,420.88,138.72,420.66,141.58Zm-40.23-19.06a14,14,0,0,0-4.84,9h29.2a14.21,14.21,0,0,0-4.85-9,14.49,14.49,0,0,0-9.7-3.36A14.8,14.8,0,0,0,380.43,122.52Z"/><path class="cls-3" d="M432.46,84.6h17.19v81.78H432.46Z"/><path class="cls-3" d="M465.63,84.6h17.19v81.78H465.63Z"/><path class="cls-3" d="M543.88,112.76q7.38,6.55,7.38,19.79v33.83H535.17V159q-4.84,8.26-18.07,8.26A28.09,28.09,0,0,1,505.25,165a17.63,17.63,0,0,1-7.66-6.39A16.68,16.68,0,0,1,495,149.3a15.46,15.46,0,0,1,6.22-13q6.22-4.72,19.23-4.74h13.67q0-5.61-3.42-8.65t-10.25-3a30,30,0,0,0-9.31,1.49,24.58,24.58,0,0,0-7.77,4l-6.17-12a37.18,37.18,0,0,1,11.63-5.29,52,52,0,0,1,13.94-1.88Q536.49,106.2,543.88,112.76Zm-14.66,40.89a11.13,11.13,0,0,0,4.85-6v-6.07H522.28q-10.59,0-10.58,6.95a6.16,6.16,0,0,0,2.59,5.23,11.61,11.61,0,0,0,7.11,1.93A15,15,0,0,0,529.22,153.65Z"/><path class="cls-4" d="M120.86,230.52A114.36,114.36,0,1,1,234.93,115.87,114.36,114.36,0,0,1,120.86,230.52Z"/><rect class="cls-5" x="13.57" y="103.62" width="72.72" height="16.56" transform="translate(-64.5 68.08) rotate(-45)"/><rect class="cls-1" x="41.65" y="115.14" width="16.56" height="72.72" transform="translate(-92.5 79.68) rotate(-45)"/><polygon class="cls-1" points="100.11 180.58 117.2 180.58 142.31 82.14 125.23 82.05 100.11 180.58"/><rect class="cls-6" x="184.21" y="75.54" width="16.56" height="72.72" transform="translate(-22.74 168.88) rotate(-45)"/><rect class="cls-1" x="156.13" y="143.22" width="72.72" height="16.56" transform="translate(-50.75 180.47) rotate(-45)"/><circle class="cls-7" cx="121.93" cy="128.1" r="114.36" transform="translate(-54.87 123.74) rotate(-45)"/><circle class="cls-8" cx="121.57" cy="128.1" r="114.36" transform="translate(-31.03 216.98) rotate(-76.72)"/><path class="cls-9" d="M214.7,62.45A114.36,114.36,0,1,1,55.2,35.69,114.36,114.36,0,0,1,214.7,62.45Z"/></g></g></svg>